<svg width="729" height="332" viewBox="0 0 729 332" fill="none" xmlns="http://www.w3.org/2000/svg">
<path d="M0 92.3713L31.4611 74.2073L234.62 48L261.745 63.6604L218.198 88.8024L202.144 79.5339L73.7167 96.2597L72.2405 97.112L184.338 161.831L152.323 180.315L0 92.3713ZM57.4788 163.909L100.288 139.193L114.958 131.576L247.168 55.2443L284.626 76.8706L95.6749 185.961L57.4788 163.909Z" fill="#6C9C26"/>
<path d="M261.745 15.6604L234.62 0V47.9998L261.745 63.6602V15.6604Z" fill="#6C9C26"/>
<path d="M234.62 0L31.4609 26.2073V74.207L234.62 47.9998V0Z" fill="#6C9C26"/>
<path d="M284.626 28.8646L247.168 7.23828V55.2381L284.626 76.8644V28.8646Z" fill="#6C9C26"/>
<path d="M218.198 40.8021L261.745 15.6602V63.6599L218.198 88.8019V40.8021Z" fill="#6C9C26"/>
<path d="M31.4611 26.2109L0 44.3749V92.3747L31.4611 74.2107V26.2109Z" fill="#6C9C26"/>
<path d="M202.144 31.5352L218.198 40.8036V88.8034L202.144 79.5349V31.5352Z" fill="#6C9C26"/>
<path d="M73.7166 48.2609L202.144 31.5352V79.5349L73.7166 96.2607V48.2609Z" fill="#6C9C26"/>
<path d="M247.168 7.23828L114.957 83.5696V131.569L247.168 55.2381V7.23828Z" fill="#6C9C26"/>
<path d="M72.2404 49.1101L73.7165 48.2578V96.2576L72.2404 97.1099V49.1101Z" fill="#6C9C26"/>
<path d="M184.338 113.832L72.2404 49.1133V97.1131L184.338 161.832V113.832Z" fill="#6C9C26"/>
<path d="M95.6749 137.958L284.626 28.8672V76.867L95.6749 185.957V137.958Z" fill="#6C9C26"/>
<path d="M114.957 83.5781L100.288 91.1953V139.195L114.957 131.578V83.5781Z" fill="#6C9C26"/>
<path d="M0 44.375L152.323 132.318V180.318L0 92.3748V44.375Z" fill="#6C9C26"/>
<path d="M100.288 91.1953L57.4788 115.911V163.911L100.288 139.195V91.1953Z" fill="#6C9C26"/>
<path d="M152.323 132.316L184.338 113.832V161.832L152.323 180.315V132.316Z" fill="#6C9C26"/>
<path d="M57.4788 115.906L95.6749 137.959V185.958L57.4788 163.906V115.906Z" fill="#6C9C26"/>
<path d="M0 44.3713L31.4611 26.2073L234.62 0L261.745 15.6604L218.198 40.8024L202.144 31.5339L73.7167 48.2597L72.2405 49.112L184.338 113.831L152.323 132.315L0 44.3713ZM57.4788 115.909L100.288 91.1928L114.958 83.5756L247.168 7.24429L284.626 28.8706L95.6749 137.961L57.4788 115.909Z" fill="#B5E275"/>
<path d="M257.369 218.005C241.561 208.808 231.812 198.669 228.122 187.59C227.041 184.301 226.501 180.969 226.5 177.592C226.498 169.628 229.499 161.42 235.503 152.966C244.114 140.964 258.784 129.014 279.512 117.118C300.117 105.222 320.722 96.8409 341.327 91.9759C361.993 87.1463 381.798 85.8324 400.743 88.0341C419.81 90.2358 437.247 95.8999 453.055 105.026C468.862 114.153 478.642 124.202 482.394 135.175C483.587 138.62 484.184 142.11 484.185 145.645C484.187 153.407 481.314 161.388 475.567 169.586C467.263 181.482 452.778 193.36 432.112 205.221C411.384 217.188 390.594 225.64 369.743 230.576C348.953 235.548 328.994 236.986 309.865 234.891C290.737 232.796 273.238 227.167 257.369 218.005ZM290.491 198.882C301.316 205.132 315.401 206.979 332.746 204.422C350.091 201.865 369.62 194.284 391.332 181.677C405.663 173.403 416.12 165.662 422.701 158.453C429.344 151.28 432.388 144.763 431.835 138.904C431.343 133.08 427.499 128.091 420.302 123.936C409.538 117.721 395.545 115.857 378.323 118.343C361.101 120.829 341.726 128.251 320.199 140.608C305.683 148.989 295.011 156.819 288.184 164.099C281.48 171.379 278.374 177.966 278.866 183.861C279.419 189.72 283.294 194.728 290.491 198.882Z" fill="#6C9C26"/>
<path d="M400.743 40.0341C381.798 37.8324 361.993 39.1463 341.327 43.9759V91.9756C361.993 87.1461 381.798 85.8322 400.743 88.0339V40.0341Z" fill="#6C9C26"/>
<path d="M453.055 57.0273C437.248 47.9009 419.81 42.2368 400.743 40.0352V88.0349C419.81 90.2366 437.248 95.9007 453.055 105.027V57.0273Z" fill="#6C9C26"/>
<path d="M341.327 43.9727C320.722 48.8377 300.117 57.2183 279.512 69.1146V117.114C300.117 105.218 320.722 96.8375 341.327 91.9724V43.9727Z" fill="#6C9C26"/>
<path d="M482.394 87.1725C478.642 76.1995 468.862 66.1498 453.055 57.0234V105.023C468.862 114.15 478.642 124.199 482.394 135.172V87.1725Z" fill="#6C9C26"/>
<path d="M378.323 70.3427C395.545 67.8569 409.538 69.7212 420.302 75.9357V123.935C409.538 117.721 395.545 115.857 378.323 118.342V70.3427Z" fill="#6C9C26"/>
<path d="M320.199 92.6054C341.726 80.2475 361.101 72.8256 378.323 70.3398V118.34C361.101 120.825 341.726 128.247 320.199 140.605V92.6054Z" fill="#6C9C26"/>
<path d="M420.302 75.9375C427.498 80.0923 431.343 85.0816 431.835 90.9055V138.905C431.343 133.081 427.498 128.092 420.302 123.937V75.9375Z" fill="#6C9C26"/>
<path d="M279.512 69.1172C258.784 81.0134 244.114 92.963 235.503 104.966V152.966C244.114 140.963 258.784 129.013 279.512 117.117V69.1172Z" fill="#6C9C26"/>
<path d="M484.185 97.6457C484.184 94.1105 483.587 90.6205 482.394 87.1758V135.176C483.587 138.62 484.184 142.11 484.185 145.645V97.6457Z" fill="#6C9C26"/>
<path d="M422.701 110.451C428.322 104.382 431.366 98.7823 431.835 93.6533V90.9023C431.92 91.8038 431.92 92.7208 431.835 93.6533V138.902C432.388 144.761 429.344 151.278 422.701 158.451V110.451Z" fill="#6C9C26"/>
<path d="M288.184 116.096C295.012 108.816 305.683 100.986 320.199 92.6055V140.605C305.683 148.986 295.012 156.816 288.184 164.096V116.096Z" fill="#6C9C26"/>
<path d="M475.567 121.589C481.311 113.396 484.183 105.421 484.185 97.6629V145.648C484.187 153.41 481.314 161.391 475.567 169.589V121.589Z" fill="#6C9C26"/>
<path d="M235.503 104.965C229.499 113.418 226.498 121.627 226.5 129.59L226.5 177.576C226.502 169.617 229.503 161.413 235.503 152.965V104.965Z" fill="#6C9C26"/>
<path d="M422.701 110.453C416.12 117.662 405.663 125.403 391.332 133.677V181.677C405.663 173.403 416.12 165.662 422.701 158.453V110.453Z" fill="#6C9C26"/>
<path d="M278.866 135.86C278.374 129.965 281.48 123.377 288.184 116.098V164.097C282.397 170.382 279.29 176.15 278.866 181.402V183.859C278.798 183.053 278.798 182.234 278.866 181.402V135.86Z" fill="#6C9C26"/>
<path d="M226.5 129.59C226.501 132.967 227.041 136.299 228.122 139.588V187.588C227.041 184.299 226.501 180.966 226.5 177.59V129.59Z" fill="#6C9C26"/>
<path d="M432.112 157.221C452.778 145.361 467.263 133.482 475.567 121.586V169.586C467.263 181.482 452.778 193.36 432.112 205.221V157.221Z" fill="#6C9C26"/>
<path d="M290.491 150.885C283.294 146.73 279.419 141.723 278.866 135.863V183.863C279.419 189.722 283.294 194.729 290.491 198.884V150.885Z" fill="#6C9C26"/>
<path d="M391.332 133.676C369.62 146.282 350.091 153.864 332.746 156.421V204.42C350.091 201.864 369.62 194.282 391.332 181.676V133.676Z" fill="#6C9C26"/>
<path d="M332.746 156.423C315.401 158.979 301.316 157.133 290.491 150.883V198.883C301.316 205.133 315.401 206.979 332.746 204.422V156.423Z" fill="#6C9C26"/>
<path d="M228.122 139.59C231.813 150.669 241.561 160.808 257.369 170.005V218.005C241.561 208.808 231.813 198.669 228.122 187.59V139.59Z" fill="#6C9C26"/>
<path d="M369.743 182.578C390.594 177.642 411.384 169.19 432.112 157.223V205.222C411.384 217.19 390.594 225.641 369.743 230.577V182.578Z" fill="#6C9C26"/>
<path d="M257.369 170C273.238 179.162 290.737 184.79 309.865 186.886V234.885C290.737 232.79 273.238 227.162 257.369 218V170Z" fill="#6C9C26"/>
<path d="M309.865 186.893C328.994 188.988 348.953 187.55 369.743 182.578V230.578C348.953 235.549 328.994 236.988 309.865 234.893V186.893Z" fill="#6C9C26"/>
<path d="M257.369 170.005C241.561 160.808 231.812 150.669 228.122 139.59C224.493 128.546 226.953 117.005 235.503 104.966C244.114 92.9636 258.784 81.014 279.512 69.1178C300.117 57.2215 320.722 48.8409 341.327 43.9759C361.993 39.1463 381.798 37.8324 400.743 40.0341C419.81 42.2358 437.247 47.8999 453.055 57.0262C468.862 66.1526 478.642 76.2023 482.394 87.1753C486.207 98.1837 483.932 109.654 475.567 121.586C467.263 133.482 452.778 145.36 432.112 157.221C411.384 169.188 390.594 177.64 369.743 182.576C348.953 187.548 328.994 188.986 309.865 186.891C290.737 184.796 273.238 179.167 257.369 170.005ZM290.491 150.882C301.316 157.132 315.401 158.979 332.746 156.422C350.091 153.865 369.62 146.284 391.332 133.677C405.663 125.403 416.12 117.662 422.701 110.453C429.344 103.28 432.388 96.7633 431.835 90.9039C431.343 85.0801 427.499 80.0908 420.302 75.936C409.538 69.7215 395.545 67.8572 378.323 70.3429C361.101 72.8287 341.726 80.2506 320.199 92.6085C305.683 100.989 295.011 108.819 288.184 116.099C281.48 123.379 278.374 129.966 278.866 135.861C279.419 141.72 283.294 146.728 290.491 150.882Z" fill="#B5E275"/>
<path d="M444 237.875L475.461 219.711L678.62 193.504L705.745 209.164L662.198 234.306L646.144 225.038L517.717 241.764L516.241 242.616L628.338 307.335L596.323 325.819L444 237.875ZM501.479 309.412L544.288 284.697L558.958 277.08L691.168 200.748L728.626 222.375L539.675 331.465L501.479 309.412Z" fill="#6C9C26"/>
<path d="M705.745 161.164L678.62 145.504V193.504L705.745 209.164V161.164Z" fill="#6C9C26"/>
<path d="M678.62 145.504L475.461 171.711V219.711L678.62 193.504V145.504Z" fill="#6C9C26"/>
<path d="M728.626 174.369L691.168 152.742V200.742L728.626 222.368V174.369Z" fill="#6C9C26"/>
<path d="M662.198 186.306L705.745 161.164V209.164L662.198 234.306V186.306Z" fill="#6C9C26"/>
<path d="M475.461 171.715L444 189.879V237.879L475.461 219.715V171.715Z" fill="#6C9C26"/>
<path d="M646.144 177.039L662.198 186.307V234.307L646.144 225.039V177.039Z" fill="#6C9C26"/>
<path d="M517.717 193.765L646.145 177.039V225.039L517.717 241.765V193.765Z" fill="#6C9C26"/>
<path d="M691.168 152.742L558.958 229.074V277.073L691.168 200.742V152.742Z" fill="#6C9C26"/>
<path d="M516.241 194.614L517.717 193.762V241.761L516.241 242.614V194.614Z" fill="#6C9C26"/>
<path d="M628.338 259.336L516.241 194.617V242.617L628.338 307.336V259.336Z" fill="#6C9C26"/>
<path d="M539.675 283.462L728.626 174.371V222.371L539.675 331.461V283.462Z" fill="#6C9C26"/>
<path d="M558.958 229.082L544.288 236.699V284.699L558.958 277.082V229.082Z" fill="#6C9C26"/>
<path d="M444 189.879L596.323 277.822V325.822L444 237.879V189.879Z" fill="#6C9C26"/>
<path d="M544.288 236.699L501.479 261.415V309.415L544.288 284.699V236.699Z" fill="#6C9C26"/>
<path d="M596.323 277.82L628.338 259.336V307.336L596.323 325.819V277.82Z" fill="#6C9C26"/>
<path d="M501.479 261.41L539.675 283.463V331.462L501.479 309.41V261.41Z" fill="#6C9C26"/>
<path d="M444 189.875L475.461 171.711L678.62 145.504L705.745 161.164L662.198 186.306L646.144 177.038L517.717 193.764L516.241 194.616L628.338 259.335L596.323 277.819L444 189.875ZM501.479 261.412L544.288 236.697L558.958 229.08L691.168 152.748L728.626 174.375L539.675 283.465L501.479 261.412Z" fill="#B5E275"/>
</svg>
