<svg xmlns="http://www.w3.org/2000/svg" width="196" height="132" viewBox="0 0 196 132" fill="none">
  <path fill-rule="evenodd" clip-rule="evenodd" d="M3.18032 5.96384L96.6782 -35.7506C97.7154 -36.2133 98.9005 -36.2133 99.9377 -35.7506L193.416 5.95504C194.869 6.60324 195.8 8.09075 195.78 9.68151C194.619 103.945 174.082 134.214 100.43 179.716C99.1474 180.508 97.47 180.507 96.1883 179.713C23.0961 134.404 1.28493 104.951 0.815478 9.66084C0.807695 8.08097 1.73751 6.60755 3.18032 5.96384ZM135.331 54.4647C137.508 51.9668 137.248 48.1767 134.75 45.9993C132.252 43.822 128.462 44.0819 126.285 46.5799L92.1549 85.7357L69.5649 67.5941C66.9812 65.5192 63.2046 65.9317 61.1297 68.5154C59.0548 71.099 59.4673 74.8756 62.051 76.9505L88.3854 98.0991C91.3142 100.451 95.5772 100.072 98.0453 97.2407L135.331 54.4647Z" fill="url(#paint0_linear_1362_1644)"/>
  <defs>
    <linearGradient id="paint0_linear_1362_1644" x1="98.2981" y1="-36.0977" x2="98.2981" y2="180.309" gradientUnits="userSpaceOnUse">
      <stop stop-color="white" stop-opacity="0.8"/>
      <stop offset="1" stop-color="#B5E275"/>
    </linearGradient>
  </defs>
</svg>